<svg width="32" height="32" viewBox="0 0 32 32" fill="none" xmlns="http://www.w3.org/2000/svg">
<path d="M20.0001 4.66663H12.0001C7.94999 4.66663 4.66675 7.94987 4.66675 12V20C4.66675 24.05 7.94999 27.3333 12.0001 27.3333H20.0001C24.0502 27.3333 27.3334 24.05 27.3334 20V12C27.3334 7.94987 24.0502 4.66663 20.0001 4.66663Z" stroke="#FDFCFC" stroke-width="1.8" stroke-linecap="round" stroke-linejoin="round"/>
<path d="M16.0001 20.808C18.6555 20.808 20.8081 18.6554 20.8081 16C20.8081 13.3446 18.6555 11.192 16.0001 11.192C13.3448 11.192 11.1921 13.3446 11.1921 16C11.1921 18.6554 13.3448 20.808 16.0001 20.808Z" stroke="#FDFCFC" stroke-width="1.8" stroke-linecap="round" stroke-linejoin="round"/>
<path d="M22.5254 10.848C23.2839 10.848 23.8988 10.2331 23.8988 9.47465C23.8988 8.71618 23.2839 8.10132 22.5254 8.10132C21.767 8.10132 21.1521 8.71618 21.1521 9.47465C21.1521 10.2331 21.767 10.848 22.5254 10.848Z" fill="#FDFCFC"/>
</svg>
