<svg width="201" height="201" viewBox="0 0 201 201" fill="none" xmlns="http://www.w3.org/2000/svg">
<path opacity="0.2" d="M100.252 48.9609C127.807 48.9609 152.704 54.826 170.676 64.2597C188.694 73.718 199.504 86.6106 199.504 100.585C199.504 114.559 188.694 127.452 170.676 136.91C152.704 146.344 127.807 152.209 100.252 152.209C72.6968 152.209 47.7999 146.344 29.8281 136.91C11.8096 127.452 1.00007 114.559 1 100.585C1 86.6106 11.8095 73.718 29.8281 64.2597C47.7999 54.8261 72.6968 48.9609 100.252 48.9609Z" stroke="url(#paint0_linear_2042_827)" stroke-width="2"/>
<path opacity="0.2" d="M151.543 100.252C151.543 127.808 145.715 152.706 136.341 170.678C126.941 188.698 114.131 199.504 100.252 199.504C86.373 199.504 73.5635 188.698 64.1641 170.678C54.7899 152.705 48.9609 127.808 48.9609 100.252C48.9609 72.6958 54.7898 47.7975 64.1641 29.8252C73.5635 11.8048 86.3731 1.0001 100.252 0.999998C114.131 0.999998 126.941 11.8046 136.341 29.8252C145.715 47.7975 151.543 72.6958 151.543 100.252Z" stroke="url(#paint1_linear_2042_827)" stroke-width="2"/>
<g filter="url(#filter0_ii_2042_827)">
<circle cx="101.917" cy="97.9178" r="84.5979" fill="white" fill-opacity="0.02"/>
</g>
<circle cx="101.917" cy="97.9178" r="82.5979" stroke="white" stroke-opacity="0.01" stroke-width="4"/>
<defs>
<filter id="filter0_ii_2042_827" x="17.3193" y="13.3199" width="169.196" height="169.196" filterUnits="userSpaceOnUse" color-interpolation-filters="sRGB">
<feFlood flood-opacity="0" result="BackgroundImageFix"/>
<feBlend mode="normal" in="SourceGraphic" in2="BackgroundImageFix" result="shape"/>
<feColorMatrix in="SourceAlpha" type="matrix" values="0 0 0 0 0 0 0 0 0 0 0 0 0 0 0 0 0 0 127 0" result="hardAlpha"/>
<feMorphology radius="12" operator="erode" in="SourceAlpha" result="effect1_innerShadow_2042_827"/>
<feOffset/>
<feGaussianBlur stdDeviation="20"/>
<feComposite in2="hardAlpha" operator="arithmetic" k2="-1" k3="1"/>
<feColorMatrix type="matrix" values="0 0 0 0 1 0 0 0 0 1 0 0 0 0 1 0 0 0 0.12 0"/>
<feBlend mode="normal" in2="shape" result="effect1_innerShadow_2042_827"/>
<feColorMatrix in="SourceAlpha" type="matrix" values="0 0 0 0 0 0 0 0 0 0 0 0 0 0 0 0 0 0 127 0" result="hardAlpha"/>
<feOffset/>
<feGaussianBlur stdDeviation="20"/>
<feComposite in2="hardAlpha" operator="arithmetic" k2="-1" k3="1"/>
<feColorMatrix type="matrix" values="0 0 0 0 0.363823 0 0 0 0 0.371004 0 0 0 0 0.382972 0 0 0 1 0"/>
<feBlend mode="normal" in2="effect1_innerShadow_2042_827" result="effect2_innerShadow_2042_827"/>
</filter>
<linearGradient id="paint0_linear_2042_827" x1="100.252" y1="34.6384" x2="100.252" y2="144.549" gradientUnits="userSpaceOnUse">
<stop stop-color="white"/>
<stop offset="1" stop-color="white" stop-opacity="0"/>
</linearGradient>
<linearGradient id="paint1_linear_2042_827" x1="165.781" y1="100.252" x2="56.5662" y2="100.252" gradientUnits="userSpaceOnUse">
<stop stop-color="white"/>
<stop offset="1" stop-color="white" stop-opacity="0"/>
</linearGradient>
</defs>
</svg>
