<svg width="21" height="21" viewBox="0 0 21 21" fill="none" xmlns="http://www.w3.org/2000/svg">
<g clip-path="url(#clip0_58_311)">
<path d="M7.16278 6.75752L1.89066 7.78991L1.79756 7.81371C1.65705 7.85854 1.53096 7.93986 1.43216 8.04937C1.33336 8.15887 1.26539 8.29264 1.2352 8.437C1.205 8.58137 1.21366 8.73116 1.2603 8.87108C1.30693 9.011 1.38986 9.13604 1.50062 9.23343L5.5327 12.7879L4.88694 18.1221L4.88065 18.2142C4.87921 18.3619 4.91705 18.5073 4.99029 18.6355C5.06354 18.7638 5.16955 18.8703 5.29747 18.9441C5.4254 19.0179 5.57065 19.0564 5.71834 19.0556C5.86603 19.0548 6.01086 19.0148 6.138 18.9396L10.7638 16.2079L15.6256 18.4706L15.7107 18.5048C15.8508 18.5521 16.0009 18.5613 16.1457 18.5315C16.2905 18.5017 16.4247 18.4338 16.5347 18.335C16.6446 18.2361 16.7262 18.1098 16.7712 17.969C16.8162 17.8282 16.823 17.6779 16.7907 17.5336L15.6212 12.2892L19.2847 8.35348L19.3461 8.27952C19.4332 8.16072 19.4873 8.02095 19.5027 7.87446C19.5182 7.72796 19.4946 7.57998 19.4343 7.44559C19.374 7.3112 19.2791 7.1952 19.1594 7.10941C19.0396 7.02362 18.8993 6.9711 18.7526 6.95721L13.4043 6.44898L10.7927 1.75553C10.7172 1.61955 10.605 1.50743 10.469 1.43188C10.333 1.35632 10.1786 1.32035 10.0232 1.32803C9.86782 1.33571 9.71768 1.38674 9.58979 1.47534C9.4619 1.56394 9.36137 1.68657 9.29957 1.82935L7.16278 6.75752Z" fill="#FE6512"/>
</g>
<defs>
<clipPath id="clip0_58_311">
<rect width="20" height="20" fill="white" transform="translate(0 0.987455) rotate(-2.83)"/>
</clipPath>
</defs>
</svg>
