<svg width="16" height="16" viewBox="0 0 16 16" fill="none" xmlns="http://www.w3.org/2000/svg">
<path d="M13.4019 13.8711L11.6858 15.076C11.3952 15.28 10.9947 15.2106 10.7933 14.9184C9.97522 13.7322 9.0221 12.2269 7.9357 10.3642C6.9549 12.2744 6.06258 13.7832 5.26018 14.9287C5.05794 15.2176 4.65938 15.2842 4.37058 15.0815L2.63394 13.8624C2.33154 13.65 2.27314 13.2244 2.50434 12.936C4.0797 10.9733 5.24882 9.70884 5.96354 9.04852C4.17682 8.6818 2.48162 8.31284 0.877943 7.90324C0.521783 7.81236 0.318903 7.43764 0.431543 7.08772L1.09762 5.01604C1.20866 4.67044 1.58626 4.48756 1.92738 4.61156C4.11218 5.4058 5.70258 6.05604 6.74114 6.65924C6.49634 4.30596 6.3309 2.59828 6.27922 1.46612C6.26274 1.10324 6.5549 0.801636 6.91826 0.801636H8.99778C9.36434 0.801636 9.65698 1.10756 9.63666 1.47364C9.55666 2.90964 9.38738 4.65076 9.13026 6.65924C10.5837 5.90596 12.2288 5.24852 14.0701 4.60052C14.4087 4.48132 14.7797 4.66692 14.8896 5.00868L15.5695 7.1226C15.6776 7.4594 15.493 7.82452 15.1551 7.929C13.3871 8.4762 11.6237 8.83364 9.90786 9.04852C10.7791 9.81172 11.9997 11.1213 13.5226 12.9344C13.7639 13.2218 13.7091 13.6554 13.4019 13.8711Z" fill="#FF4405"/>
</svg>
