<svg width="17" height="18" viewBox="0 0 17 18" fill="none" xmlns="http://www.w3.org/2000/svg">
<path d="M11.4333 0.599976V3.93331M4.7666 0.599976V3.93331" stroke="#FDFCFC" stroke-width="1.2" stroke-linecap="round" stroke-linejoin="round"/>
<path d="M8.93294 2.26672H7.26628C4.12358 2.26672 2.55223 2.26672 1.57592 3.24303C0.599609 4.21935 0.599609 5.79069 0.599609 8.93339V10.6001C0.599609 13.7427 0.599609 15.3141 1.57592 16.2904C2.55223 17.2667 4.12358 17.2667 7.26628 17.2667H8.93294C12.0756 17.2667 13.647 17.2667 14.6233 16.2904C15.5996 15.3141 15.5996 13.7427 15.5996 10.6001V8.93339C15.5996 5.79069 15.5996 4.21935 14.6233 3.24303C13.647 2.26672 12.0756 2.26672 8.93294 2.26672Z" stroke="#FDFCFC" stroke-width="1.2" stroke-linecap="round" stroke-linejoin="round"/>
<path d="M0.599609 7.26672H15.5996" stroke="#FDFCFC" stroke-width="1.2" stroke-linecap="round" stroke-linejoin="round"/>
</svg>
