<svg width="1112.3" height="285" viewBox="0 0 1112.3 285" fill="none" xmlns="http://www.w3.org/2000/svg">
<path d="M83.16325757575757 261.323H0.0V4.241560606060602H85.75132575757576Q123.53712121212118 4.241560606060602 150.88437499999998 19.769969696969696Q178.23162878787875 35.29837878787879 192.89734848484846 64.0259356060606Q207.56306818181815 92.75349242424241 207.56306818181815 132.43720454545453Q207.56306818181815 172.29345454545455 192.8110795454545 201.19354924242424Q178.05909090909088 230.09364393939393 150.19422348484846 245.70832196969695Q122.32935606060605 261.323 83.16325757575757 261.323ZM38.303409090909085 228.0231893939394H80.74772727272727Q125.78011363636361 228.0231893939394 147.4336174242424 202.6601212121212Q169.0871212121212 177.297053030303 169.0871212121212 132.43720454545453Q169.0871212121212 87.74989393939393 147.69242424242424 62.645632575757574Q126.29772727272726 37.54137121212122 83.33579545454543 37.54137121212122H38.303409090909085Z" fill="#FDFCFC"/>
<path d="M297.54011363636357 264.9462954545454Q278.90602272727267 264.9462954545454 263.98149621212116 256.75074621212116Q249.05696969696965 248.55519696969696 240.34380681818178 232.50917424242425Q231.6306439393939 216.4631515151515 231.6306439393939 192.65292424242423V79.12299999999999H268.03613636363633V188.1669393939394Q268.03613636363633 210.07925 278.56094696969694 221.20794318181817Q289.08575757575755 232.33663636363633 308.0649242424242 232.33663636363633Q326.5264772727272 232.33663636363633 339.20801136363633 220.86286742424238Q351.88954545454544 209.38909848484846 351.88954545454544 184.0260303030303V79.12299999999999H388.29503787878787V261.323H352.5796969696969V233.88947727272725Q333.945606060606 264.9462954545454 297.54011363636357 264.9462954545454Z" fill="#FDFCFC"/>
<path d="M511.399356060606 264.9462954545454Q493.6279545454545 264.9462954545454 478.87596590909084 257.1820909090909Q464.1239772727272 249.41788636363634 454.9794696969696 233.5444015151515H454.6343939393939V261.323H418.91905303030296V4.241560606060602H455.3245454545454V105.52129545454545H455.6696212121211Q464.469053030303 90.33796212121212 479.13477272727266 82.91883333333332Q493.80049242424235 75.49970454545453 511.5718939393939 75.49970454545453Q535.0370454545454 75.49970454545453 552.8084469696969 87.49108712121212Q570.5798484848484 99.4824696969697 580.5007765151514 120.79089772727272Q590.4217045454544 142.09932575757574 590.4217045454544 170.22299999999998Q590.4217045454544 198.34667424242423 580.5870454545454 219.65510227272728Q570.7523863636363 240.9635303030303 552.9809848484848 252.95491287878787Q535.2095833333333 264.9462954545454 511.399356060606 264.9462954545454ZM503.9802272727272 233.5444015151515Q526.0650757575756 233.5444015151515 539.781837121212 217.32584090909089Q553.4985984848483 201.10728030303028 553.4985984848483 170.22299999999998Q553.4985984848483 139.3387196969697 539.781837121212 123.03389015151515Q526.0650757575756 106.72906060606061 503.9802272727272 106.72906060606061Q480.68761363636355 106.72906060606061 466.79831439393934 124.06911742424242Q452.90901515151506 141.40917424242423 452.90901515151506 170.22299999999998Q452.90901515151506 198.86428787878788 466.79831439393934 216.20434469696968Q480.68761363636355 233.5444015151515 503.9802272727272 233.5444015151515Z" fill="#FDFCFC"/>
<path d="M667.6309469696969 264.2561439393939Q640.369962121212 264.2561439393939 622.4260227272725 250.36684469696968Q604.4820833333332 236.47754545454544 604.4820833333332 209.2165606060606Q604.4820833333332 188.51201515151513 614.7480871212119 177.38332196969696Q625.0140909090908 166.25462878787877 641.4914583333332 161.42356818181815Q657.9688257575757 156.59250757575757 676.4303787878787 154.34951515151516Q693.5116287878786 152.2790606060606 703.5188257575757 150.89875757575754Q713.5260227272727 149.51845454545452 717.7532007575757 146.75784848484847Q721.9803787878786 143.99724242424242 721.9803787878786 137.26826515151515V135.71542424242423Q721.9803787878786 122.43000757575757 712.3182575757575 113.88938257575757Q702.6561363636363 105.34875757575756 685.2298106060605 105.34875757575756Q667.8034848484847 105.34875757575756 656.7610606060605 113.71684469696969Q645.7186363636363 122.08493181818181 644.683409090909 134.68019696969696H608.9680681818181Q610.1758333333332 108.62697727272726 630.8803787878787 92.0633409090909Q651.5849242424241 75.49970454545453 685.7474242424241 75.49970454545453Q719.3923106060605 75.49970454545453 738.716553030303 92.0633409090909Q758.0407954545453 108.62697727272726 758.0407954545453 136.40557575757575V261.323H722.1529166666666V235.44231818181817H721.462765151515Q715.7690151515151 246.4847424242424 703.4325568181818 255.37044318181813Q691.0960984848484 264.2561439393939 667.6309469696969 264.2561439393939ZM675.0500757575757 234.92470454545452Q699.2053787878787 234.92470454545452 710.6791477272726 222.41570833333333Q722.1529166666666 209.9067121212121 722.1529166666666 193.17053787878785V171.7758409090909Q718.5296212121211 174.70898484848482 705.7618181818181 177.03824621212118Q692.994015151515 179.36750757575757 678.5008333333333 181.4379621212121Q663.4900378787878 183.68095454545454 652.1025378787879 189.89231818181815Q640.7150378787878 196.1036818181818 640.7150378787878 209.9067121212121Q640.7150378787878 221.63928787878785 649.9458143939394 228.2819962121212Q659.1765909090908 234.92470454545452 675.0500757575757 234.92470454545452Z" fill="#FDFCFC"/>
<path d="M856.1271212121211 265.636446969697Q835.2500378787878 265.636446969697 818.5138636363636 258.90746969696966Q801.7776893939393 252.1784924242424 791.5116856060606 238.89307575757573Q781.2456818181818 225.60765909090907 780.0379166666665 205.9383409090909H815.9257954545454Q819.0314772727272 236.65008333333333 855.4369696969696 236.65008333333333Q872.6907575757575 236.65008333333333 882.7842234848484 229.57603030303028Q892.8776893939394 222.50197727272726 892.8776893939394 211.6320909090909Q892.8776893939394 202.31504545454544 885.6310984848485 196.70756439393938Q878.3845075757575 191.10008333333332 866.6519318181818 188.51201515151513L836.457803030303 181.78303787878787Q784.1788257575757 170.39553787878788 784.1788257575757 129.67659848484848Q784.1788257575757 105.52129545454545 803.4167992424242 90.33796212121212Q822.6547727272726 75.15462878787878 853.8841287878787 75.15462878787878Q884.768409090909 75.15462878787878 904.696534090909 91.11438257575757Q924.6246590909091 107.07413636363637 925.3148106060605 134.68019696969696H890.462159090909Q890.2896212121211 121.3947803030303 880.454962121212 112.68161742424242Q870.6203030303029 103.96845454545453 854.4017424242423 103.96845454545453Q838.8733333333332 103.96845454545453 829.7288257575757 111.21504545454545Q820.5843181818182 118.46163636363636 820.5843181818182 128.98644696969697Q820.5843181818182 138.30349242424242 827.5721022727273 143.99724242424242Q834.5598863636363 149.6909924242424 846.8100757575756 152.4515984848485L877.8668939393939 159.35311363636362Q904.4377272727272 165.2194015151515 917.0329924242424 177.4695909090909Q929.6282575757575 189.7197803030303 929.6282575757575 209.56163636363635Q929.6282575757575 226.9879621212121 920.0524053030302 239.4969583333333Q910.476553030303 252.00595454545453 893.9129166666667 258.82120075757575Q877.3492803030302 265.636446969697 856.1271212121211 265.636446969697Z" fill="#FDFCFC"/>
<path d="M1029.0948863636363 265.46390909090906Q1002.0064393939392 265.46390909090906 982.5959280303028 253.2137196969697Q963.1854166666665 240.9635303030303 952.7468749999998 219.48256439393938Q942.3083333333332 198.00159848484847 942.3083333333332 170.56807575757574Q942.3083333333332 142.78947727272725 953.1782196969696 121.22224242424241Q964.048106060606 99.65500757575757 983.1998106060605 87.31854924242424Q1002.3515151515151 74.98209090909091 1027.1969696969695 74.98209090909091Q1053.0776515151513 74.98209090909091 1072.143087121212 87.05974242424243Q1091.2085227272726 99.13739393939395 1101.7333333333331 120.61835984848484Q1112.258143939394 142.09932575757574 1112.258143939394 170.22299999999998V180.05765909090908H978.1962121212119Q979.2314393939392 204.73057575757574 992.430587121212 219.91390909090907Q1005.6297348484848 235.0972424242424 1029.6125 235.0972424242424Q1047.5564393939392 235.0972424242424 1059.116477272727 226.9879621212121Q1070.676515151515 218.8786818181818 1074.4723484848482 205.9383409090909H1109.4975378787876Q1106.219318181818 223.53720454545453 1094.918087121212 236.99515909090906Q1083.6168560606059 250.4531136363636 1066.6218749999998 257.9585113636363Q1049.6268939393938 265.46390909090906 1029.0948863636363 265.46390909090906ZM978.5412878787878 152.4515984848485H1076.7153409090906Q1074.4723484848482 130.71182575757575 1061.3594696969694 118.03029166666666Q1048.2465909090909 105.34875757575756 1027.5420454545454 105.34875757575756Q1006.8374999999999 105.34875757575756 993.810890151515 118.03029166666666Q980.7842803030302 130.71182575757575 978.5412878787878 152.4515984848485Z" fill="#FDFCFC"/>
</svg>
