<svg width="32" height="32" viewBox="0 0 32 32" fill="none" xmlns="http://www.w3.org/2000/svg">
<path d="M17 13.3333H23L22.3333 16H17V28H14.3333V16H9V13.3333H14.3333V10.8373C14.3333 8.46 14.5813 7.59733 15.0453 6.728C15.5003 5.86932 16.2027 5.16701 17.0613 4.712C17.9307 4.248 18.7933 4 21.1707 4C21.8676 4 22.4773 4.06667 23 4.2V6.66667H21.1707C19.4053 6.66667 18.868 6.77067 18.3187 7.064C17.9244 7.27001 17.6028 7.59206 17.3973 7.98667C17.104 8.53467 17 9.072 17 10.8373V13.3333Z" fill="#FDFCFC"/>
</svg>
