<svg width="32" height="32" viewBox="0 0 32 32" fill="none" xmlns="http://www.w3.org/2000/svg">
<rect width="32" height="32" rx="4" fill="black"/>
<path d="M8.57422 24.5L15.0242 7H17.2492L23.6742 24.5H21.4492L16.1242 9.625L10.7742 24.5H8.57422ZM11.5242 20L12.1242 18.3H20.0492L20.6492 20H11.5242Z" fill="white" fill-opacity="0.88"/>
<path d="M21.8823 9.976C21.607 9.976 21.362 9.91533 21.1473 9.794C20.9373 9.67267 20.7717 9.50467 20.6503 9.29C20.5337 9.07533 20.4753 8.83267 20.4753 8.562C20.4753 8.28667 20.5337 8.044 20.6503 7.834C20.7717 7.61933 20.9373 7.45133 21.1473 7.33C21.362 7.204 21.607 7.141 21.8823 7.141C22.153 7.141 22.3933 7.204 22.6033 7.33C22.8133 7.45133 22.9767 7.61933 23.0933 7.834C23.2147 8.044 23.2753 8.28667 23.2753 8.562C23.2753 8.83267 23.2147 9.07533 23.0933 9.29C22.9767 9.50467 22.8133 9.67267 22.6033 9.794C22.3933 9.91533 22.153 9.976 21.8823 9.976ZM22.1623 9.304L21.7283 8.611H22.0853L22.5543 9.304H22.1623ZM21.8823 9.724C22.111 9.724 22.307 9.675 22.4703 9.577C22.6383 9.47433 22.769 9.33667 22.8623 9.164C22.9557 8.98667 23.0023 8.786 23.0023 8.562C23.0023 8.33333 22.9557 8.13267 22.8623 7.96C22.769 7.78733 22.6383 7.652 22.4703 7.554C22.307 7.45133 22.111 7.4 21.8823 7.4C21.6537 7.4 21.453 7.45133 21.2803 7.554C21.1123 7.652 20.9817 7.78733 20.8883 7.96C20.795 8.13267 20.7483 8.33333 20.7483 8.562C20.7483 8.786 20.795 8.98667 20.8883 9.164C20.9817 9.33667 21.1123 9.47433 21.2803 9.577C21.453 9.675 21.6537 9.724 21.8823 9.724ZM21.3223 9.304V7.799H21.9873C22.146 7.799 22.2697 7.841 22.3583 7.925C22.4517 8.00433 22.4983 8.11633 22.4983 8.261C22.4983 8.401 22.4517 8.513 22.3583 8.597C22.2697 8.67633 22.146 8.716 21.9873 8.716H21.6513V9.304H21.3223ZM21.6513 8.45H21.9593C22.02 8.45 22.069 8.436 22.1063 8.408C22.1483 8.38 22.1693 8.33333 22.1693 8.268C22.1693 8.20267 22.1483 8.15833 22.1063 8.135C22.069 8.107 22.02 8.093 21.9593 8.093H21.6513V8.45Z" fill="#F6F3F0" fill-opacity="0.88"/>
</svg>
