<svg width="256" height="256" viewBox="0 0 256 256" fill="none" xmlns="http://www.w3.org/2000/svg">
<rect width="256" height="256" rx="8" fill="black"/>
<path d="M67.0938 196L118.694 56H136.494L187.894 196H170.094L127.494 77L84.6938 196H67.0938ZM90.6938 160L95.4938 146.4H158.894L163.694 160H90.6938Z" fill="white" fill-opacity="0.88"/>
<path d="M173.559 78.808C171.356 78.808 169.396 78.3227 167.679 77.352C165.999 76.3813 164.673 75.0373 163.703 73.32C162.769 71.6027 162.303 69.6613 162.303 67.496C162.303 65.2933 162.769 63.352 163.703 61.672C164.673 59.9547 165.999 58.6107 167.679 57.64C169.396 56.632 171.356 56.128 173.559 56.128C175.724 56.128 177.647 56.632 179.327 57.64C181.007 58.6107 182.313 59.9547 183.247 61.672C184.217 63.352 184.703 65.2933 184.703 67.496C184.703 69.6613 184.217 71.6027 183.247 73.32C182.313 75.0373 181.007 76.3813 179.327 77.352C177.647 78.3227 175.724 78.808 173.559 78.808ZM175.799 73.432L172.327 67.888H175.183L178.935 73.432H175.799ZM173.559 76.792C175.388 76.792 176.956 76.4 178.263 75.616C179.607 74.7947 180.652 73.6933 181.399 72.312C182.145 70.8933 182.519 69.288 182.519 67.496C182.519 65.6667 182.145 64.0613 181.399 62.68C180.652 61.2987 179.607 60.216 178.263 59.432C176.956 58.6107 175.388 58.2 173.559 58.2C171.729 58.2 170.124 58.6107 168.743 59.432C167.399 60.216 166.353 61.2987 165.607 62.68C164.86 64.0613 164.487 65.6667 164.487 67.496C164.487 69.288 164.86 70.8933 165.607 72.312C166.353 73.6933 167.399 74.7947 168.743 75.616C170.124 76.4 171.729 76.792 173.559 76.792ZM169.079 73.432V61.392H174.399C175.668 61.392 176.657 61.728 177.367 62.4C178.113 63.0347 178.487 63.9307 178.487 65.088C178.487 66.208 178.113 67.104 177.367 67.776C176.657 68.4107 175.668 68.728 174.399 68.728H171.711V73.432H169.079ZM171.711 66.6H174.175C174.66 66.6 175.052 66.488 175.351 66.264C175.687 66.04 175.855 65.6667 175.855 65.144C175.855 64.6213 175.687 64.2667 175.351 64.08C175.052 63.856 174.66 63.744 174.175 63.744H171.711V66.6Z" fill="#F6F3F0" fill-opacity="0.88"/>
</svg>
